<svg width="144" height="32" viewBox="0 0 144 32" fill="none" xmlns="http://www.w3.org/2000/svg">
	<path d="M45.0362 7.77903C43.6725 4.71685 32.5158 6.71238 20.118 12.2354C16.6425 13.7831 13.4375 15.4444 10.6554 17.1011C10.5876 16.2338 10.6012 15.3625 10.6949 14.4969C10.8525 13.5206 11.1122 12.5657 11.473 11.6453C11.866 10.7757 12.3477 9.95017 12.9112 9.17941C13.5239 8.42275 14.2133 7.7333 14.97 7.12063C15.7436 6.55484 16.5725 6.07092 17.4461 5.67622C18.367 5.31427 19.3224 5.05339 20.2993 4.89698C21.0531 4.81567 21.8115 4.79647 22.5693 4.83769C23.165 4.86988 23.8578 4.54633 24.2717 4.13243C24.689 3.71457 25.0035 3.02963 24.977 2.42996C24.9493 1.80713 24.7444 1.16172 24.2717 0.727493C23.7867 0.281972 23.2322 0.0583644 22.5693 0.0222258C17.9859 -0.227356 13.346 1.63773 10.1986 4.97773C8.57628 6.69883 7.3679 8.73388 6.60673 10.9705C5.65471 13.7673 5.56662 16.8583 6.23405 19.7274C6.25099 19.8002 6.2685 19.8725 6.28657 19.9448C1.82288 23.1509 -0.623247 26.0708 0.137358 27.7789C0.957817 29.6209 5.32325 29.6322 11.3714 28.1465C12.3624 29.002 13.4567 29.7327 14.6289 30.303C16.8498 31.3849 19.2575 31.9868 21.7347 31.9998C24.2158 32.0128 26.6281 31.4159 28.8591 30.351C29.9636 29.8236 30.9495 29.1358 31.9083 28.3797C32.6977 27.7575 33.4182 27.0477 34.0529 26.2673C35.7248 24.2102 36.9677 21.8211 37.4674 19.1994C37.6193 18.401 37.7266 17.5867 37.7729 16.7747C37.7797 16.655 37.7712 16.5313 37.7514 16.4066C42.9294 12.8926 45.86 9.62606 45.0373 7.77903H45.0362ZM4.91951 27.1984C4.54853 26.3661 5.56605 24.9923 7.58247 23.3536C8.39729 24.9178 9.47241 26.3537 10.7452 27.5762C7.51979 28.2273 5.3447 28.1533 4.91951 27.1984ZM41.4805 11.3647C41.4387 12.289 40.2444 13.6459 38.2077 15.214C38.1168 15.2834 38.0242 15.3546 37.9287 15.4257C37.8864 15.4579 37.8446 15.4895 37.8017 15.5206C37.7119 15.5878 37.6187 15.6556 37.525 15.7239C37.4019 15.4754 37.2421 15.2479 37.0659 15.0723C36.6486 14.655 35.9631 14.3404 35.3635 14.367C34.7406 14.3947 34.0952 14.5996 33.661 15.0723C33.2149 15.5584 32.9936 16.1112 32.9557 16.7747C32.9422 17.0158 32.9207 17.2558 32.8947 17.4958C32.7378 18.4732 32.478 19.4292 32.1172 20.3507C31.7225 21.2226 31.2408 22.0498 30.6762 22.8223C30.0635 23.5784 29.3746 24.2667 28.6185 24.8794C27.8438 25.4457 27.0137 25.9302 26.1396 26.3255C25.2221 26.6857 24.27 26.946 23.2966 27.1024C22.2982 27.2103 21.292 27.2092 20.2931 27.1013C19.314 26.9443 18.3557 26.6829 17.4325 26.3204C16.564 25.9274 15.7402 25.4463 14.9711 24.8833C14.2156 24.2712 13.5273 23.5823 12.9152 22.8268C12.3962 22.1176 11.9462 21.3621 11.5701 20.5676C14.3088 18.8674 17.7244 17.065 21.5156 15.3766C26.9917 12.9373 32.1223 11.2376 35.8112 10.5222C38.7131 9.95921 40.7233 10.0049 41.3066 10.7802C41.3461 10.8322 41.3788 10.8875 41.4048 10.9462C41.4585 11.0671 41.4833 11.1992 41.4794 11.3421C41.4794 11.3494 41.4794 11.3573 41.4794 11.3652L41.4805 11.3647Z" fill="url(#paint0_linear_4344_4447)"/>
	<path opacity="0.8" d="M37.7685 16.3941C37.7301 16.1631 37.6493 15.9299 37.5409 15.7131C37.6296 15.6482 37.7171 15.5844 37.8024 15.5206C37.8447 15.4889 37.8876 15.4573 37.9294 15.4257C38.0248 15.3545 38.1174 15.284 38.2084 15.2139C40.506 13.4527 41.4653 12.2116 41.4812 11.3646C41.4812 11.3567 41.4812 11.3488 41.4812 11.3415C41.4812 11.1303 41.4207 10.9439 41.3084 10.7796C39.2823 7.83828 20.1182 12.2353 20.1182 12.2353C32.5165 6.71234 43.6726 4.71737 45.0363 7.77899C45.8584 9.62432 42.9352 12.8847 37.769 16.3941H37.7685Z" fill="url(#paint1_linear_4344_4447)"/>
	<path d="M32.8913 3.71631L31.2391 4.66947L30.2865 6.32168C30.1725 6.51931 29.8873 6.51931 29.7738 6.32168L28.8207 4.66947L27.1685 3.71631C27.0702 3.65985 27.0205 3.5599 27.0205 3.46052C27.0205 3.36114 27.0696 3.26119 27.1685 3.2036L28.8207 2.25157L29.7738 0.599358C29.8309 0.501107 29.9308 0.451416 30.0302 0.451416C30.1296 0.451416 30.2295 0.501107 30.2865 0.599358L31.2391 2.25157L32.8913 3.2036C33.089 3.31822 33.089 3.60281 32.8913 3.71631Z" fill="url(#paint2_linear_4344_4447)"/>
	<path d="M31.6468 14.284C31.6468 14.284 30.3583 21.5823 23.7551 23.7054C22.3078 24.1278 21.0051 24.2667 19.8961 24.2323C17.7674 24.1662 16.3512 23.4615 15.9892 22.8951C15.4398 22.034 16.2868 20.6495 20.013 19.1633C23.6817 17.7008 31.4006 14.3896 31.6406 14.2868C31.6446 14.2851 31.6463 14.284 31.6463 14.284H31.6468Z" fill="url(#paint3_linear_4344_4447)"/>
	<path d="M31.6468 14.2839C31.6468 14.2839 30.3583 21.5822 23.7551 23.7054C22.3078 24.1277 21.0052 24.2667 19.8962 24.2322C17.4495 22.1819 31.3216 14.4646 31.6412 14.2868C31.6451 14.2851 31.6468 14.2839 31.6468 14.2839Z" fill="url(#paint4_linear_4344_4447)"/>
	<path d="M62.5011 25.9794C59.9861 25.9794 57.9284 25.1564 56.3695 23.4897C54.8106 21.8231 54 19.5391 54 16.6379C54 13.7366 54.8106 11.4321 56.4111 9.7243C58.0115 8.01648 60.0693 7.15228 62.5635 7.15228C64.2887 7.15228 65.806 7.64611 67.1155 8.65434C67.4065 8.88068 67.552 9.16874 67.552 9.53911C67.552 9.84776 67.448 10.1152 67.2402 10.3622C67.0323 10.6091 66.7621 10.7325 66.4088 10.7531H66.3256C66.0138 10.7531 65.7436 10.6708 65.515 10.5062C64.6836 9.93006 63.7275 9.64199 62.6466 9.64199C60.9215 9.64199 59.5497 10.2593 58.5104 11.4938C57.4711 12.7284 56.9515 14.4157 56.9515 16.535C56.9515 18.6543 57.4503 20.4239 58.448 21.6585C59.4457 22.893 60.8799 23.5103 62.7714 23.5103C63.9145 23.5103 64.8291 23.2634 65.515 22.7284C65.6189 22.6461 65.6605 22.5432 65.6605 22.4403V18.5103C65.6605 18.4074 65.5981 18.3457 65.4734 18.3457H63.2078C62.8753 18.3457 62.6051 18.2222 62.3764 17.9959C62.1478 17.7696 62.0231 17.4815 62.0231 17.1729C62.0231 16.8642 62.1478 16.5762 62.3764 16.3498C62.6051 16.1235 62.8961 16.0206 63.2078 16.0206H66.8453C67.261 16.0206 67.5935 16.1646 67.8637 16.4321C68.1339 16.6996 68.2794 17.0494 68.2794 17.4403V22.4609C68.2794 23.5309 67.9053 24.3128 67.157 24.7654C65.806 25.5885 64.2471 26 62.4804 26L62.5011 25.9794Z" fill="#F67D28"/>
	<path d="M74.9516 9.06602C74.5982 9.37466 74.1617 9.53927 73.6421 9.53927C73.1225 9.53927 72.686 9.37466 72.3326 9.06602C71.9793 8.75738 71.813 8.34586 71.813 7.87261C71.813 7.39936 71.9793 6.96726 72.3326 6.65861C72.686 6.34997 73.1017 6.18536 73.6421 6.18536C74.1825 6.18536 74.5982 6.34997 74.9516 6.65861C75.3049 6.96726 75.4712 7.37878 75.4712 7.87261C75.4712 8.36643 75.3049 8.75738 74.9516 9.06602ZM74.6398 25.2594C74.3696 25.5269 74.037 25.671 73.6213 25.671C73.2056 25.671 72.8938 25.5269 72.6028 25.2594C72.3118 24.9919 72.1871 24.6627 72.1871 24.2718V13.4899C72.1871 13.0989 72.3326 12.7697 72.6028 12.5022C72.873 12.2347 73.2056 12.0907 73.6213 12.0907C74.037 12.0907 74.3488 12.2347 74.6398 12.5022C74.9308 12.7697 75.0555 13.0989 75.0555 13.4899V24.2718C75.0555 24.6627 74.91 24.9919 74.6398 25.2594Z" fill="#F67D28"/>
	<path d="M83.993 25.9794C82.5173 25.9794 81.4572 25.5679 80.7921 24.7448C80.127 23.9218 79.8152 22.7489 79.8152 21.2263V14.5391C79.8152 14.4156 79.7528 14.3539 79.6281 14.3539H78.9007C78.5889 14.3539 78.3395 14.251 78.1316 14.0452C77.9237 13.8395 77.8198 13.5926 77.8198 13.3045C77.8198 12.9959 77.9237 12.7284 78.1316 12.5226C78.3395 12.3168 78.5889 12.1934 78.9007 12.1728L79.7528 12.0905C79.8776 12.0905 79.9399 12.0288 79.9399 11.9053L80.1686 9.53907C80.2101 9.20985 80.3348 8.92178 80.605 8.67487C80.8752 8.42795 81.1455 8.32507 81.4988 8.32507C81.8522 8.32507 82.1016 8.44853 82.3302 8.67487C82.5589 8.9012 82.6836 9.18927 82.6836 9.53907V11.9053C82.6836 12.0288 82.7459 12.0905 82.8706 12.0905H85.1154C85.4272 12.0905 85.6974 12.1934 85.9261 12.4197C86.1547 12.6461 86.2586 12.893 86.2586 13.2222C86.2586 13.5514 86.1547 13.7983 85.9261 14.0247C85.6974 14.251 85.4272 14.3539 85.1154 14.3539H82.8706C82.7459 14.3539 82.6836 14.4156 82.6836 14.5391V21.2469C82.6836 22.0699 82.8498 22.6872 83.1616 23.0987C83.4734 23.5103 83.993 23.716 84.6789 23.716C84.8037 23.716 84.9492 23.716 85.1154 23.6954C85.1778 23.6954 85.2401 23.6749 85.3025 23.6749C85.5311 23.6749 85.739 23.7366 85.9261 23.8395C86.1755 23.9629 86.321 24.1687 86.3833 24.4362C86.4249 24.5391 86.4249 24.6214 86.4249 24.7243C86.4249 24.9094 86.3833 25.0946 86.2794 25.2798C86.1131 25.5473 85.8845 25.7119 85.5935 25.7942C85.0115 25.9177 84.4711 25.9794 83.9515 25.9794H83.993Z" fill="#F67D28"/>
	<path d="M91.6835 25.3004C91.4341 25.5473 91.1223 25.6708 90.769 25.6708C90.4156 25.6708 90.1038 25.5473 89.8336 25.3004C89.5634 25.0535 89.4387 24.7449 89.4387 24.3951V8.92184C89.4387 8.53089 89.5842 8.20167 89.8752 7.91361C90.1662 7.62554 90.4988 7.48151 90.8937 7.48151H91.351C91.7667 7.48151 92.1616 7.60496 92.5149 7.85188C92.8683 8.09879 93.1177 8.42801 93.2632 8.81895L96.1316 16.6585C96.2771 17.0906 96.4849 17.7078 96.7551 18.5309C97.0253 19.3539 97.2124 19.9301 97.3371 20.2799C97.3371 20.321 97.3787 20.3622 97.4202 20.3622C97.4618 20.3622 97.4826 20.3416 97.5034 20.2799C97.6281 19.9095 97.8152 19.3128 98.0854 18.5103C98.3556 17.7078 98.5426 17.0906 98.6881 16.6585L101.536 8.81895C101.66 8.40743 101.91 8.09879 102.263 7.85188C102.617 7.60496 103.011 7.48151 103.427 7.48151H103.905C104.3 7.48151 104.633 7.62554 104.924 7.91361C105.215 8.20167 105.36 8.53089 105.36 8.92184V24.3539C105.36 24.7243 105.235 25.0329 104.965 25.3004C104.695 25.5679 104.383 25.6914 104.009 25.6914C103.635 25.6914 103.323 25.5679 103.053 25.3004C102.783 25.0329 102.658 24.7243 102.658 24.3539V16.679C102.658 15.6914 102.783 13.819 103.032 11.1029C103.032 11.0618 103.032 11.0618 102.991 11.0618C102.949 11.0618 102.949 11.0618 102.949 11.1029L101.494 15.2593L98.605 23.0988C98.5219 23.3457 98.3764 23.5309 98.1477 23.6955C97.9191 23.8601 97.6697 23.9218 97.3995 23.9218C97.1292 23.9218 96.8798 23.8395 96.672 23.6955C96.4641 23.5515 96.2978 23.3457 96.1939 23.0988L93.3048 15.2593L91.8706 11.1029C91.8706 11.1029 91.8706 11.0618 91.8082 11.0618C91.7459 11.0618 91.7459 11.0618 91.7667 11.1029C91.9953 14.1482 92.0992 16 92.0992 16.679V24.3951C92.0992 24.7449 91.9745 25.0535 91.7251 25.3004H91.6835Z" fill="#F67D28"/>
	<path d="M112.635 9.06602C112.282 9.37466 111.845 9.53927 111.326 9.53927C110.806 9.53927 110.37 9.37466 110.016 9.06602C109.663 8.75738 109.497 8.34586 109.497 7.87261C109.497 7.39936 109.663 6.96726 110.016 6.65861C110.37 6.34997 110.785 6.18536 111.326 6.18536C111.866 6.18536 112.282 6.34997 112.635 6.65861C112.988 6.96726 113.155 7.37878 113.155 7.87261C113.155 8.36643 112.988 8.75738 112.635 9.06602ZM112.323 25.2594C112.053 25.5269 111.721 25.671 111.305 25.671C110.889 25.671 110.577 25.5269 110.286 25.2594C109.995 24.9919 109.871 24.6627 109.871 24.2718V13.4899C109.871 13.0989 110.016 12.7697 110.286 12.5022C110.557 12.2347 110.889 12.0907 111.305 12.0907C111.721 12.0907 112.032 12.2347 112.323 12.5022C112.614 12.7697 112.739 13.0989 112.739 13.4899V24.2718C112.739 24.6627 112.594 24.9919 112.323 25.2594Z" fill="#F67D28"/>
	<path d="M119.473 25.2592C119.203 25.5267 118.871 25.6708 118.455 25.6708C118.039 25.6708 117.727 25.5267 117.436 25.2592C117.145 24.9918 117.021 24.6625 117.021 24.2716V13.2634C117.021 12.9341 117.125 12.6666 117.353 12.4403C117.582 12.214 117.852 12.1111 118.185 12.1111C118.517 12.1111 118.829 12.214 119.078 12.4403C119.328 12.6666 119.473 12.9341 119.515 13.2634L119.598 13.9424C119.598 13.9424 119.64 13.9835 119.66 13.9835C119.681 13.9835 119.702 13.9835 119.723 13.9629C120.45 13.2634 121.178 12.7078 121.884 12.3169C122.591 11.9259 123.381 11.7407 124.233 11.7407C127.039 11.7407 128.453 13.5514 128.453 17.1317V24.251C128.453 24.6625 128.307 24.9918 128.037 25.2592C127.767 25.5267 127.434 25.6708 127.018 25.6708C126.603 25.6708 126.27 25.5267 126 25.2592C125.73 24.9918 125.563 24.642 125.563 24.251V17.4815C125.563 16.3086 125.376 15.465 125.023 14.9712C124.67 14.4773 124.067 14.2099 123.256 14.2099C122.674 14.2099 122.134 14.3333 121.677 14.6008C121.219 14.8683 120.658 15.3004 120.014 15.9177C119.931 16.0206 119.889 16.1234 119.889 16.2263V24.2716C119.889 24.6625 119.744 24.9918 119.473 25.2592Z" fill="#F67D28"/>
	<path d="M137.328 25.9794C135.582 25.9794 134.21 25.3621 133.192 24.107C132.173 22.8519 131.654 21.1235 131.654 18.8807C131.654 16.6379 132.236 15.0329 133.4 13.716C134.563 12.3992 135.935 11.7202 137.557 11.7202C138.263 11.7202 138.866 11.8436 139.427 12.07C139.988 12.2963 140.529 12.6667 141.111 13.1399C141.111 13.1399 141.152 13.1399 141.194 13.1399C141.236 13.1399 141.236 13.0988 141.236 13.0576L141.111 11V7.41975C141.111 7.00823 141.256 6.67901 141.547 6.41152C141.838 6.14403 142.171 6 142.566 6C142.961 6 143.293 6.14403 143.584 6.41152C143.875 6.67901 144 7.02881 144 7.41975V24.5185C144 24.8477 143.896 25.1152 143.667 25.3416C143.439 25.5679 143.169 25.6708 142.836 25.6708C142.503 25.6708 142.192 25.5679 141.942 25.3416C141.693 25.1152 141.527 24.8477 141.485 24.5185L141.443 24.1893C141.443 24.1893 141.443 24.1687 141.402 24.1687C141.36 24.1687 141.339 24.1687 141.319 24.1893C140.113 25.4033 138.804 26 137.369 26L137.328 25.9794ZM137.993 23.6337C139.074 23.6337 140.072 23.1193 140.986 22.1111C141.069 22.0288 141.111 21.9259 141.111 21.8025V15.5062C141.111 15.4033 141.069 15.3004 140.986 15.2181C140.092 14.4774 139.136 14.107 138.097 14.107C137.12 14.107 136.309 14.5391 135.644 15.4033C134.979 16.2675 134.647 17.3992 134.647 18.8395C134.647 20.3827 134.938 21.5761 135.52 22.3992C136.102 23.2222 136.933 23.6337 138.014 23.6337H137.993Z" fill="#F67D28"/>
	<defs>
		<linearGradient id="paint0_linear_4344_4447" x1="41.8193" y1="5.83489" x2="-1.27769" y2="27.7168" gradientUnits="userSpaceOnUse">
			<stop offset="0.13" stop-color="#FFB91D"/>
			<stop offset="0.88" stop-color="#FF5A12"/>
		</linearGradient>
		<linearGradient id="paint1_linear_4344_4447" x1="42.8968" y1="9.00657" x2="22.7823" y2="16.5121" gradientUnits="userSpaceOnUse">
			<stop offset="0.04" stop-color="#FFE3C7"/>
			<stop offset="0.84" stop-color="#FF9A15"/>
		</linearGradient>
		<linearGradient id="paint2_linear_4344_4447" x1="30.0302" y1="0.293874" x2="30.0302" y2="6.0992" gradientUnits="userSpaceOnUse">
			<stop offset="0.13" stop-color="#FFB91D"/>
			<stop offset="0.88" stop-color="#FF5A12"/>
		</linearGradient>
		<linearGradient id="paint3_linear_4344_4447" x1="16.9232" y1="23.9708" x2="30.5932" y2="17.0605" gradientUnits="userSpaceOnUse">
			<stop stop-color="#FFD6A9"/>
			<stop offset="0.83" stop-color="#FF791F"/>
		</linearGradient>
		<linearGradient id="paint4_linear_4344_4447" x1="32.8027" y1="12.8966" x2="20.7849" y2="25.0645" gradientUnits="userSpaceOnUse">
			<stop offset="0.13" stop-color="#FFB91D"/>
			<stop offset="0.88" stop-color="#FF5A12"/>
		</linearGradient>
	</defs>
</svg>
